HIERARCHY
ROOT SpineBase
{
  OFFSET 0.000000 0.000000 0.000000
  CHANNELS 6 Xposition Yposition Zposition Zrotation Xrotation Yrotation
  JOINT SpineMid
  {
    OFFSET -0.000000 29.570343 0.000000
    CHANNELS 3 Zrotation Xrotation Yrotation
    JOINT SpineShoulder
    {
      OFFSET -0.240027 21.954940 -0.837742
      CHANNELS 3 Zrotation Xrotation Yrotation
      JOINT Neck
      {
        OFFSET -0.091101 7.291658 -0.627360
        CHANNELS 3 Zrotation Xrotation Yrotation
        JOINT Head
        {
          OFFSET 2.308532 14.235143 -0.137536
          CHANNELS 3 Zrotation Xrotation Yrotation
          End Site
          {
            OFFSET 0 0 0
          }
        }
      }
      JOINT ShoulderLeft
      {
        OFFSET -5.491690 -0.889455 -6.295148
        CHANNELS 3 Zrotation Xrotation Yrotation
        JOINT ElbowLeft
        {
          OFFSET -2.626559 -26.764494 -7.902942
          CHANNELS 3 Zrotation Xrotation Yrotation
          JOINT WristLeft
          {
            OFFSET -1.443899 -16.999515 -13.467667
            CHANNELS 3 Zrotation Xrotation Yrotation
            JOINT HandLeft
            {
              OFFSET -0.508003 -5.733874 -4.093660
              CHANNELS 3 Zrotation Xrotation Yrotation
              JOINT HandTipLeft
              {
                OFFSET 0.119928 -2.311475 -0.874720
                CHANNELS 3 Zrotation Xrotation Yrotation
                End Site
                {
                  OFFSET 0 0 0
                }
              }
              JOINT ThumbLeft
              {
                OFFSET 1.823426 -1.442694 -4.010323
                CHANNELS 3 Zrotation Xrotation Yrotation
                End Site
                {
                  OFFSET 0 0 0
                }
              }
            }
          }
        }
      }
      JOINT ShoulderRight
      {
        OFFSET 14.740681 -2.206695 5.756329
        CHANNELS 3 Zrotation Xrotation Yrotation
        JOINT ElbowRight
        {
          OFFSET 2.401373 -28.423350 0.522588
          CHANNELS 3 Zrotation Xrotation Yrotation
          JOINT WristRight
          {
            OFFSET 0.262896 -26.178774 -8.896037
            CHANNELS 3 Zrotation Xrotation Yrotation
            JOINT HandRight
            {
              OFFSET -1.726118 -3.275545 -0.215776
              CHANNELS 3 Zrotation Xrotation Yrotation
              JOINT HandTipRight
              {
                OFFSET 0.423844 -4.039023 -1.679135
                CHANNELS 3 Zrotation Xrotation Yrotation
                End Site
                {
                  OFFSET 0 0 0
                }
              }
              JOINT ThumbRight
              {
                OFFSET 3.874526 0.695318 -1.307378
                CHANNELS 3 Zrotation Xrotation Yrotation
                End Site
                {
                  OFFSET 0 0 0
                }
              }
            }
          }
        }
      }
    }
  }
  JOINT HipLeft
  {
    OFFSET -6.750973 2.438922 -5.546030
    CHANNELS 3 Zrotation Xrotation Yrotation
    JOINT KneeLeft
    {
      OFFSET -5.922492 -38.761426 5.215983
      CHANNELS 3 Zrotation Xrotation Yrotation
      JOINT AnkleLeft
      {
        OFFSET -10.602987 -26.569509 -0.156955
        CHANNELS 3 Zrotation Xrotation Yrotation
        JOINT FootLeft
        {
          OFFSET 7.299105 -11.521601 -0.370368
          CHANNELS 3 Zrotation Xrotation Yrotation
          End Site
          {
            OFFSET 0 0 0
          }
        }
      }
    }
  }
  JOINT HipRight
  {
    OFFSET 7.027603 -0.772817 -1.618882
    CHANNELS 3 Zrotation Xrotation Yrotation
    JOINT KneeRight
    {
      OFFSET -8.160267 -33.926156 4.418543
      CHANNELS 3 Zrotation Xrotation Yrotation
      JOINT AnkleRight
      {
        OFFSET -7.300992 -34.779398 4.691920
        CHANNELS 3 Zrotation Xrotation Yrotation
        JOINT FootRight
        {
          OFFSET 2.300238 -7.987384 -6.997433
          CHANNELS 3 Zrotation Xrotation Yrotation
          End Site
          {
            OFFSET 0 0 0
          }
        }
      }
    }
  }
}
MOTION
Frames: 6
Frame Time: 0.033333
-11.993726 77.703943 347.812546 -0.544980 -1.459873 -19.795717 -0.724750 -0.222606 19.731945 -0.175155 0.143183 -0.073735 -5.482346 2.962701 0.043410 0.000000 0.000000 0.000000 -2.639166 4.147789 1.239637 4.906736 0.284320 -1.688686 0.030223 0.122426 0.015875 -0.787717 -3.371629 0.855450 0.000000 0.000000 0.000000 0.000000 0.000000 0.000000 1.474318 1.284000 0.126477 -0.741794 -0.649575 0.241832 24.919200 14.821673 -14.137866 -34.878681 -30.602507 6.007388 0.000000 0.000000 0.000000 0.000000 0.000000 0.000000 -12.954163 22.195770 18.118089 25.522208 -31.623377 19.158157 -35.304157 51.103657 37.186231 0.000000 0.000000 0.000000 1.239665 3.346042 19.658677 -7.649715 -5.683893 -0.167475 -3.339480 1.734284 7.786146 0.000000 0.000000 0.000000
-11.699342 77.489638 347.165175 -0.785819 -2.251726 -19.981893 -0.694069 -0.208708 19.897964 -0.157417 0.157493 -0.081779 -6.389769 3.088207 0.251623 0.000000 0.000000 0.000000 -3.258363 3.488371 1.674201 5.957740 2.247443 -2.327990 0.039610 0.142345 0.019300 -0.970638 -3.990794 1.037904 0.000000 0.000000 0.000000 0.000000 0.000000 0.000000 1.210762 1.220122 0.072885 -0.397102 -0.885408 0.348538 27.514749 17.190056 -16.612951 -39.828896 -34.364991 5.343032 0.000000 0.000000 0.000000 0.000000 0.000000 0.000000 -12.982927 24.554096 18.524601 24.962141 -29.458944 17.661232 -36.323298 48.063400 37.839678 0.000000 0.000000 0.000000 1.599355 3.803115 19.954421 -8.639174 -4.208024 -0.540793 1.181669 1.537000 4.518829 0.000000 0.000000 0.000000
-11.436750 77.151811 346.375491 -1.006168 -3.057453 -20.151787 -0.684383 -0.185447 20.045194 -0.151971 0.170347 -0.090565 -7.312551 2.572897 0.527010 0.000000 0.000000 0.000000 -4.615433 2.996882 2.357501 7.966660 4.285529 -3.341956 0.056888 0.173299 0.026490 -1.302660 -4.949122 1.352833 0.000000 0.000000 0.000000 0.000000 0.000000 0.000000 1.693930 1.065377 0.002780 -0.843078 -0.858133 0.477746 28.755935 19.714778 -18.950522 -41.193439 -38.067278 4.829599 0.000000 0.000000 0.000000 0.000000 0.000000 0.000000 -12.401260 26.025264 18.847539 24.196462 -25.418562 15.070491 -36.702222 42.129669 35.895038 0.000000 0.000000 0.000000 1.872794 4.022810 20.263065 -9.452156 -2.333801 -0.909353 3.431147 -2.455380 2.465628 0.000000 0.000000 0.000000
-11.173218 76.668456 345.318092 -1.278061 -3.812569 -20.239698 -0.703169 -0.156681 20.104507 -0.157463 0.189947 -0.103222 -7.438945 1.560733 0.803266 0.000000 0.000000 0.000000 -6.466215 2.080748 3.256084 10.954956 6.977076 -4.923127 0.089481 0.218330 0.039122 -1.879741 -6.375976 1.874573 0.000000 0.000000 0.000000 0.000000 0.000000 0.000000 2.146079 0.378289 -0.104381 -0.877688 0.161306 0.562341 27.551670 19.738765 -18.347987 -40.856054 -40.998591 3.965052 0.000000 0.000000 0.000000 0.000000 0.000000 0.000000 -11.816901 27.871957 19.053722 23.333391 -22.163311 12.824337 -42.198753 38.133748 38.774011 0.000000 0.000000 0.000000 2.421387 3.720575 20.605595 -10.025859 0.713011 -1.347782 8.315103 -7.259995 -1.930962 0.000000 0.000000 0.000000
-10.888195 76.084217 344.025402 -1.565306 -4.620775 -20.335245 -0.725402 -0.109770 20.166557 -0.158046 0.219006 -0.115693 -7.296406 0.677923 1.062355 0.000000 0.000000 0.000000 -6.980610 0.498507 3.720642 12.597156 9.942669 -6.244189 0.119706 0.242877 0.050018 -2.362568 -7.298899 2.283318 0.000000 0.000000 0.000000 0.000000 0.000000 0.000000 2.695368 0.152931 -0.180692 -1.121032 0.727910 0.648228 25.264154 20.113762 -17.595574 -39.157745 -43.142700 3.521261 0.000000 0.000000 0.000000 0.000000 0.000000 0.000000 -11.220742 29.316683 19.243879 22.497305 -19.027008 10.639477 -44.012142 31.001864 35.632428 0.000000 0.000000 0.000000 2.999094 3.315557 20.980053 -10.424509 3.753697 -1.726178 14.277078 -14.893476 -7.840107 0.000000 0.000000 0.000000
-10.602902 75.444253 342.472350 -1.794552 -5.239227 -20.176881 -0.732481 -0.076842 19.978972 -0.153265 0.232221 -0.125297 -7.194472 -0.747264 1.318680 0.000000 0.000000 0.000000 -8.562261 -0.539689 4.463687 15.621789 12.284251 -8.088987 0.165705 0.281178 0.067386 -3.097190 -8.538676 2.884647 0.000000 0.000000 0.000000 0.000000 0.000000 0.000000 3.179611 -0.244445 -0.264672 -1.431007 1.458555 0.765345 22.397709 19.850457 -16.169593 -35.510004 -41.974489 4.098585 0.000000 0.000000 0.000000 0.000000 0.000000 0.000000 -10.602167 30.942940 19.098896 21.749707 -17.599371 9.452901 -44.642624 29.714828 36.377435 0.000000 0.000000 0.000000 3.486111 2.674534 21.098900 -10.359900 6.683075 -2.043049 21.462764 -25.696845 -15.311808 0.000000 0.000000 0.000000
